# xmcd
#
# Track frame offsets:
# 150
# 17387
# 27667
# 42330
# 56906
# 70821
# 86756
# 104208
# 115981
# 128579
# 142289
# 157067
# 174179
# 187988
# 205119
# 223386
# 237937
# 254452
#
# Disc length: 3669 seconds
#
# Revision: 0
# Processed by: cddbd v1.5.2PL0 Copyright (c) Steve Scherf et al.
# Submitted via: Audion 3.0.2 (http://www.panic.com/audion/)
#
DISCID=130e5312
DTITLE=Iza Lach - Juz Czas
DYEAR=1900
DGENRE=
TTITLE0=Nie masz mnie
TTITLE1=Nie
TTITLE2=Jesli Ty
TTITLE3=Zanim znikniesz
TTITLE4=Piesn/Jesli chcesz
TTITLE5=Ty i Ja
TTITLE6=Juz za kilka lat
TTITLE7=Do Ciebie
TTITLE8=Spij
TTITLE9=Zyczenie
TTITLE10=On
TTITLE11=Zostalam tu
TTITLE12=Wyciagam sie
TTITLE13=Marzenie
TTITLE14=Juz czas
TTITLE15=Ty i ja
TTITLE16=Nie
TTITLE17=Zostalam tu
EXTD=
EXTT0=
EXTT1=
EXTT2=
EXTT3=
EXTT4=
EXTT5=
EXTT6=
EXTT7=
EXTT8=
EXTT9=
EXTT10=
EXTT11=
EXTT12=
EXTT13=
EXTT14=
EXTT15=
EXTT16=
EXTT17=
PLAYORDER=
